<mxfile host="app.diagrams.net" modified="2022-04-06T08:13:16.011Z" agent="5.0 (Macintosh; Intel Mac OS X 10_14_0) AppleWebKit/537.36 (KHTML, like Gecko) Chrome/99.0.4844.84 Safari/537.36" etag="Pe4DC4-FVCekQJBegou6" version="16.6.4" type="github" pages="3">
  <diagram id="2XoY2fkfpFNMx2M_qWH0" name="第 1 页">
    <mxGraphModel dx="946" dy="1687" grid="1" gridSize="10" guides="1" tooltips="1" connect="1" arrows="1" fold="1" page="1" pageScale="1" pageWidth="827" pageHeight="1169" math="0" shadow="0">
      <root>
        <mxCell id="0" />
        <mxCell id="1" parent="0" />
        <mxCell id="93ukZ7ltHVJLsO_IJnek-16" value="" style="rounded=0;whiteSpace=wrap;html=1;shadow=1;dashed=1;" vertex="1" parent="1">
          <mxGeometry x="10" y="170" width="770" height="320" as="geometry" />
        </mxCell>
        <mxCell id="93ukZ7ltHVJLsO_IJnek-1" value="" style="whiteSpace=wrap;html=1;aspect=fixed;fontStyle=1;dashed=1;" vertex="1" parent="1">
          <mxGeometry x="50" y="190" width="280" height="280" as="geometry" />
        </mxCell>
        <mxCell id="93ukZ7ltHVJLsO_IJnek-2" value="" style="whiteSpace=wrap;html=1;aspect=fixed;dashed=1;" vertex="1" parent="1">
          <mxGeometry x="430" y="190" width="280" height="280" as="geometry" />
        </mxCell>
        <mxCell id="93ukZ7ltHVJLsO_IJnek-3" value="ingress" style="rounded=0;whiteSpace=wrap;html=1;dashed=1;" vertex="1" parent="1">
          <mxGeometry x="250" y="60" width="280" height="70" as="geometry" />
        </mxCell>
        <mxCell id="93ukZ7ltHVJLsO_IJnek-8" style="edgeStyle=orthogonalEdgeStyle;rounded=0;orthogonalLoop=1;jettySize=auto;html=1;" edge="1" parent="1" source="93ukZ7ltHVJLsO_IJnek-4" target="93ukZ7ltHVJLsO_IJnek-6">
          <mxGeometry relative="1" as="geometry" />
        </mxCell>
        <mxCell id="93ukZ7ltHVJLsO_IJnek-9" value="mount" style="edgeLabel;html=1;align=center;verticalAlign=middle;resizable=0;points=[];" vertex="1" connectable="0" parent="93ukZ7ltHVJLsO_IJnek-8">
          <mxGeometry x="-0.2" y="-1" relative="1" as="geometry">
            <mxPoint as="offset" />
          </mxGeometry>
        </mxCell>
        <mxCell id="93ukZ7ltHVJLsO_IJnek-4" value="harbor" style="rounded=0;whiteSpace=wrap;html=1;" vertex="1" parent="1">
          <mxGeometry x="110" y="240" width="140" height="60" as="geometry" />
        </mxCell>
        <mxCell id="93ukZ7ltHVJLsO_IJnek-10" style="edgeStyle=orthogonalEdgeStyle;rounded=0;orthogonalLoop=1;jettySize=auto;html=1;entryX=0.5;entryY=0;entryDx=0;entryDy=0;" edge="1" parent="1" source="93ukZ7ltHVJLsO_IJnek-5" target="93ukZ7ltHVJLsO_IJnek-7">
          <mxGeometry relative="1" as="geometry" />
        </mxCell>
        <mxCell id="93ukZ7ltHVJLsO_IJnek-5" value="harbor" style="rounded=0;whiteSpace=wrap;html=1;" vertex="1" parent="1">
          <mxGeometry x="510" y="240" width="140" height="60" as="geometry" />
        </mxCell>
        <mxCell id="93ukZ7ltHVJLsO_IJnek-6" value="hostPath:/data/registry" style="rounded=0;whiteSpace=wrap;html=1;" vertex="1" parent="1">
          <mxGeometry x="110" y="380" width="140" height="30" as="geometry" />
        </mxCell>
        <mxCell id="93ukZ7ltHVJLsO_IJnek-7" value="hostPath:/data/registry" style="rounded=0;whiteSpace=wrap;html=1;" vertex="1" parent="1">
          <mxGeometry x="510" y="380" width="140" height="30" as="geometry" />
        </mxCell>
        <mxCell id="93ukZ7ltHVJLsO_IJnek-12" value="" style="shape=flexArrow;endArrow=classic;startArrow=classic;html=1;rounded=0;width=11;startSize=3.44;exitX=1;exitY=0.5;exitDx=0;exitDy=0;entryX=0;entryY=0.5;entryDx=0;entryDy=0;" edge="1" parent="1" source="93ukZ7ltHVJLsO_IJnek-6" target="93ukZ7ltHVJLsO_IJnek-7">
          <mxGeometry width="100" height="100" relative="1" as="geometry">
            <mxPoint x="290" y="430" as="sourcePoint" />
            <mxPoint x="390" y="330" as="targetPoint" />
          </mxGeometry>
        </mxCell>
        <mxCell id="93ukZ7ltHVJLsO_IJnek-13" value="rsync" style="edgeLabel;html=1;align=center;verticalAlign=middle;resizable=0;points=[];" vertex="1" connectable="0" parent="93ukZ7ltHVJLsO_IJnek-12">
          <mxGeometry x="-0.1692" y="-1" relative="1" as="geometry">
            <mxPoint as="offset" />
          </mxGeometry>
        </mxCell>
        <mxCell id="6MfbnRxAm3o5USxqysPN-1" value="" style="endArrow=classic;html=1;rounded=0;entryX=0.5;entryY=0;entryDx=0;entryDy=0;exitX=0.5;exitY=1;exitDx=0;exitDy=0;" edge="1" parent="1" source="93ukZ7ltHVJLsO_IJnek-3" target="93ukZ7ltHVJLsO_IJnek-4">
          <mxGeometry width="50" height="50" relative="1" as="geometry">
            <mxPoint x="380" y="180" as="sourcePoint" />
            <mxPoint x="430" y="130" as="targetPoint" />
          </mxGeometry>
        </mxCell>
        <mxCell id="6MfbnRxAm3o5USxqysPN-2" value="" style="endArrow=classic;html=1;rounded=0;entryX=0.5;entryY=0;entryDx=0;entryDy=0;" edge="1" parent="1" target="93ukZ7ltHVJLsO_IJnek-5">
          <mxGeometry width="50" height="50" relative="1" as="geometry">
            <mxPoint x="390" y="130" as="sourcePoint" />
            <mxPoint x="420" y="230" as="targetPoint" />
          </mxGeometry>
        </mxCell>
        <mxCell id="6MfbnRxAm3o5USxqysPN-3" value="" style="shape=flexArrow;endArrow=classic;html=1;rounded=0;entryX=0.5;entryY=0;entryDx=0;entryDy=0;" edge="1" parent="1" target="93ukZ7ltHVJLsO_IJnek-3">
          <mxGeometry width="50" height="50" relative="1" as="geometry">
            <mxPoint x="390" y="-20" as="sourcePoint" />
            <mxPoint x="430" y="-60" as="targetPoint" />
          </mxGeometry>
        </mxCell>
        <mxCell id="6MfbnRxAm3o5USxqysPN-4" value="docker pull/push" style="edgeLabel;html=1;align=center;verticalAlign=middle;resizable=0;points=[];" vertex="1" connectable="0" parent="6MfbnRxAm3o5USxqysPN-3">
          <mxGeometry x="-0.275" y="-3" relative="1" as="geometry">
            <mxPoint as="offset" />
          </mxGeometry>
        </mxCell>
      </root>
    </mxGraphModel>
  </diagram>
  <diagram id="21k8MZgpB8JiwjKCFaCN" name="第 2 页">
    <mxGraphModel dx="946" dy="1687" grid="1" gridSize="10" guides="1" tooltips="1" connect="1" arrows="1" fold="1" page="1" pageScale="1" pageWidth="827" pageHeight="1169" math="0" shadow="0">
      <root>
        <mxCell id="pKdZfyoR-ZyTafZ4G8R0-0" />
        <mxCell id="pKdZfyoR-ZyTafZ4G8R0-1" parent="pKdZfyoR-ZyTafZ4G8R0-0" />
        <mxCell id="sxYw4YFFdhdrc-sl6BJf-3" value="" style="rounded=0;whiteSpace=wrap;html=1;shadow=1;dashed=1;" vertex="1" parent="pKdZfyoR-ZyTafZ4G8R0-1">
          <mxGeometry x="20" y="130" width="750" height="360" as="geometry" />
        </mxCell>
        <mxCell id="sxYw4YFFdhdrc-sl6BJf-0" value="ingress" style="rounded=0;whiteSpace=wrap;html=1;shadow=1;dashed=1;" vertex="1" parent="pKdZfyoR-ZyTafZ4G8R0-1">
          <mxGeometry x="270" y="40" width="230" height="50" as="geometry" />
        </mxCell>
        <mxCell id="sxYw4YFFdhdrc-sl6BJf-1" value="" style="rounded=0;whiteSpace=wrap;html=1;shadow=1;dashed=1;" vertex="1" parent="pKdZfyoR-ZyTafZ4G8R0-1">
          <mxGeometry x="60" y="165" width="290" height="245" as="geometry" />
        </mxCell>
        <mxCell id="sxYw4YFFdhdrc-sl6BJf-2" value="" style="rounded=0;whiteSpace=wrap;html=1;shadow=1;dashed=1;" vertex="1" parent="pKdZfyoR-ZyTafZ4G8R0-1">
          <mxGeometry x="430" y="165" width="290" height="245" as="geometry" />
        </mxCell>
        <mxCell id="rC-AQ0yqYD-MnnPqf67j-2" style="edgeStyle=orthogonalEdgeStyle;rounded=0;orthogonalLoop=1;jettySize=auto;html=1;entryX=0.5;entryY=0;entryDx=0;entryDy=0;" edge="1" parent="pKdZfyoR-ZyTafZ4G8R0-1" source="sxYw4YFFdhdrc-sl6BJf-4" target="wkbAxR12Aa7kkFsvhNSq-0">
          <mxGeometry relative="1" as="geometry" />
        </mxCell>
        <mxCell id="rC-AQ0yqYD-MnnPqf67j-7" value="mount" style="edgeLabel;html=1;align=center;verticalAlign=middle;resizable=0;points=[];" vertex="1" connectable="0" parent="rC-AQ0yqYD-MnnPqf67j-2">
          <mxGeometry x="-0.1" relative="1" as="geometry">
            <mxPoint as="offset" />
          </mxGeometry>
        </mxCell>
        <mxCell id="sxYw4YFFdhdrc-sl6BJf-4" value="harbor" style="rounded=0;whiteSpace=wrap;html=1;shadow=1;" vertex="1" parent="pKdZfyoR-ZyTafZ4G8R0-1">
          <mxGeometry x="120" y="210" width="170" height="60" as="geometry" />
        </mxCell>
        <mxCell id="rC-AQ0yqYD-MnnPqf67j-3" value="" style="edgeStyle=orthogonalEdgeStyle;rounded=0;orthogonalLoop=1;jettySize=auto;html=1;" edge="1" parent="pKdZfyoR-ZyTafZ4G8R0-1" source="RGszgaSco_7OP9_D5iwm-0" target="rC-AQ0yqYD-MnnPqf67j-0">
          <mxGeometry relative="1" as="geometry" />
        </mxCell>
        <mxCell id="RGszgaSco_7OP9_D5iwm-0" value="harbor" style="rounded=0;whiteSpace=wrap;html=1;shadow=1;" vertex="1" parent="pKdZfyoR-ZyTafZ4G8R0-1">
          <mxGeometry x="490" y="210" width="170" height="60" as="geometry" />
        </mxCell>
        <mxCell id="rC-AQ0yqYD-MnnPqf67j-6" style="edgeStyle=orthogonalEdgeStyle;rounded=0;orthogonalLoop=1;jettySize=auto;html=1;entryX=0.22;entryY=0;entryDx=0;entryDy=0;entryPerimeter=0;" edge="1" parent="pKdZfyoR-ZyTafZ4G8R0-1" source="wkbAxR12Aa7kkFsvhNSq-0" target="rC-AQ0yqYD-MnnPqf67j-4">
          <mxGeometry relative="1" as="geometry" />
        </mxCell>
        <mxCell id="wkbAxR12Aa7kkFsvhNSq-0" value="pv:/data/registry" style="rounded=0;whiteSpace=wrap;html=1;shadow=1;" vertex="1" parent="pKdZfyoR-ZyTafZ4G8R0-1">
          <mxGeometry x="120" y="330" width="170" height="40" as="geometry" />
        </mxCell>
        <mxCell id="rC-AQ0yqYD-MnnPqf67j-8" style="edgeStyle=orthogonalEdgeStyle;rounded=0;orthogonalLoop=1;jettySize=auto;html=1;entryX=0.78;entryY=0;entryDx=0;entryDy=0;entryPerimeter=0;" edge="1" parent="pKdZfyoR-ZyTafZ4G8R0-1" source="rC-AQ0yqYD-MnnPqf67j-0" target="rC-AQ0yqYD-MnnPqf67j-4">
          <mxGeometry relative="1" as="geometry" />
        </mxCell>
        <mxCell id="rC-AQ0yqYD-MnnPqf67j-0" value="pv:/data/registry" style="rounded=0;whiteSpace=wrap;html=1;shadow=1;" vertex="1" parent="pKdZfyoR-ZyTafZ4G8R0-1">
          <mxGeometry x="490" y="330" width="170" height="40" as="geometry" />
        </mxCell>
        <mxCell id="rC-AQ0yqYD-MnnPqf67j-4" value="文件存储（ceph）" style="rounded=1;whiteSpace=wrap;html=1;shadow=1;" vertex="1" parent="pKdZfyoR-ZyTafZ4G8R0-1">
          <mxGeometry x="60" y="430" width="660" height="40" as="geometry" />
        </mxCell>
        <mxCell id="br5fFa0VuHNLgUFZhbh_-0" value="" style="endArrow=classic;html=1;rounded=0;entryX=0.5;entryY=0;entryDx=0;entryDy=0;exitX=0.5;exitY=1;exitDx=0;exitDy=0;" edge="1" parent="pKdZfyoR-ZyTafZ4G8R0-1" source="sxYw4YFFdhdrc-sl6BJf-0" target="sxYw4YFFdhdrc-sl6BJf-4">
          <mxGeometry width="50" height="50" relative="1" as="geometry">
            <mxPoint x="370" y="130" as="sourcePoint" />
            <mxPoint x="420" y="80" as="targetPoint" />
          </mxGeometry>
        </mxCell>
        <mxCell id="br5fFa0VuHNLgUFZhbh_-1" value="" style="endArrow=classic;html=1;rounded=0;entryX=0.465;entryY=0;entryDx=0;entryDy=0;entryPerimeter=0;" edge="1" parent="pKdZfyoR-ZyTafZ4G8R0-1" target="RGszgaSco_7OP9_D5iwm-0">
          <mxGeometry width="50" height="50" relative="1" as="geometry">
            <mxPoint x="390" y="90" as="sourcePoint" />
            <mxPoint x="420" y="170" as="targetPoint" />
          </mxGeometry>
        </mxCell>
        <mxCell id="br5fFa0VuHNLgUFZhbh_-2" value="" style="shape=flexArrow;endArrow=classic;html=1;rounded=0;" edge="1" parent="pKdZfyoR-ZyTafZ4G8R0-1">
          <mxGeometry width="50" height="50" relative="1" as="geometry">
            <mxPoint x="380" y="-30" as="sourcePoint" />
            <mxPoint x="380" y="40" as="targetPoint" />
          </mxGeometry>
        </mxCell>
        <mxCell id="br5fFa0VuHNLgUFZhbh_-3" value="docker pull/push" style="edgeLabel;html=1;align=center;verticalAlign=middle;resizable=0;points=[];" vertex="1" connectable="0" parent="br5fFa0VuHNLgUFZhbh_-2">
          <mxGeometry x="-0.6286" y="-1" relative="1" as="geometry">
            <mxPoint as="offset" />
          </mxGeometry>
        </mxCell>
      </root>
    </mxGraphModel>
  </diagram>
  <diagram id="IilAUvAgGNYVmrYgiFJ_" name="第 3 页">
    <mxGraphModel dx="946" dy="1687" grid="1" gridSize="10" guides="1" tooltips="1" connect="1" arrows="1" fold="1" page="1" pageScale="1" pageWidth="827" pageHeight="1169" math="0" shadow="0">
      <root>
        <mxCell id="KAaSTVsqKz9wgYAGUiCQ-0" />
        <mxCell id="KAaSTVsqKz9wgYAGUiCQ-1" parent="KAaSTVsqKz9wgYAGUiCQ-0" />
        <mxCell id="1g0qeCLxsH0dm5yWBrCH-0" value="" style="rounded=0;whiteSpace=wrap;html=1;shadow=1;dashed=1;" vertex="1" parent="KAaSTVsqKz9wgYAGUiCQ-1">
          <mxGeometry x="20" y="130" width="750" height="360" as="geometry" />
        </mxCell>
        <mxCell id="1g0qeCLxsH0dm5yWBrCH-1" value="ingress" style="rounded=0;whiteSpace=wrap;html=1;shadow=1;dashed=1;" vertex="1" parent="KAaSTVsqKz9wgYAGUiCQ-1">
          <mxGeometry x="270" y="40" width="230" height="50" as="geometry" />
        </mxCell>
        <mxCell id="1g0qeCLxsH0dm5yWBrCH-2" value="" style="rounded=0;whiteSpace=wrap;html=1;shadow=1;dashed=1;" vertex="1" parent="KAaSTVsqKz9wgYAGUiCQ-1">
          <mxGeometry x="60" y="165" width="290" height="245" as="geometry" />
        </mxCell>
        <mxCell id="1g0qeCLxsH0dm5yWBrCH-3" value="" style="rounded=0;whiteSpace=wrap;html=1;shadow=1;dashed=1;" vertex="1" parent="KAaSTVsqKz9wgYAGUiCQ-1">
          <mxGeometry x="430" y="165" width="290" height="245" as="geometry" />
        </mxCell>
        <mxCell id="1g0qeCLxsH0dm5yWBrCH-6" value="harbor" style="rounded=0;whiteSpace=wrap;html=1;shadow=1;" vertex="1" parent="KAaSTVsqKz9wgYAGUiCQ-1">
          <mxGeometry x="120" y="210" width="170" height="130" as="geometry" />
        </mxCell>
        <mxCell id="1g0qeCLxsH0dm5yWBrCH-8" value="harbor" style="rounded=0;whiteSpace=wrap;html=1;shadow=1;" vertex="1" parent="KAaSTVsqKz9wgYAGUiCQ-1">
          <mxGeometry x="490" y="210" width="170" height="130" as="geometry" />
        </mxCell>
        <mxCell id="1g0qeCLxsH0dm5yWBrCH-9" style="edgeStyle=orthogonalEdgeStyle;rounded=0;orthogonalLoop=1;jettySize=auto;html=1;entryX=0.22;entryY=0;entryDx=0;entryDy=0;entryPerimeter=0;exitX=0.5;exitY=1;exitDx=0;exitDy=0;" edge="1" parent="KAaSTVsqKz9wgYAGUiCQ-1" source="1g0qeCLxsH0dm5yWBrCH-6" target="1g0qeCLxsH0dm5yWBrCH-13">
          <mxGeometry relative="1" as="geometry">
            <mxPoint x="205" y="370" as="sourcePoint" />
          </mxGeometry>
        </mxCell>
        <mxCell id="EE6l4xODaDcvoU0X1pOI-0" value="api调用" style="edgeLabel;html=1;align=center;verticalAlign=middle;resizable=0;points=[];" vertex="1" connectable="0" parent="1g0qeCLxsH0dm5yWBrCH-9">
          <mxGeometry x="-0.1796" y="2" relative="1" as="geometry">
            <mxPoint as="offset" />
          </mxGeometry>
        </mxCell>
        <mxCell id="1g0qeCLxsH0dm5yWBrCH-11" style="edgeStyle=orthogonalEdgeStyle;rounded=0;orthogonalLoop=1;jettySize=auto;html=1;entryX=0.78;entryY=0;entryDx=0;entryDy=0;entryPerimeter=0;exitX=0.5;exitY=1;exitDx=0;exitDy=0;" edge="1" parent="KAaSTVsqKz9wgYAGUiCQ-1" source="1g0qeCLxsH0dm5yWBrCH-8" target="1g0qeCLxsH0dm5yWBrCH-13">
          <mxGeometry relative="1" as="geometry">
            <mxPoint x="575" y="370" as="sourcePoint" />
          </mxGeometry>
        </mxCell>
        <mxCell id="EE6l4xODaDcvoU0X1pOI-1" value="api调用" style="edgeLabel;html=1;align=center;verticalAlign=middle;resizable=0;points=[];" vertex="1" connectable="0" parent="1g0qeCLxsH0dm5yWBrCH-11">
          <mxGeometry x="-0.0909" y="-2" relative="1" as="geometry">
            <mxPoint as="offset" />
          </mxGeometry>
        </mxCell>
        <mxCell id="1g0qeCLxsH0dm5yWBrCH-13" value="对象存储（ceph）" style="rounded=1;whiteSpace=wrap;html=1;shadow=1;" vertex="1" parent="KAaSTVsqKz9wgYAGUiCQ-1">
          <mxGeometry x="60" y="430" width="660" height="40" as="geometry" />
        </mxCell>
        <mxCell id="EE6l4xODaDcvoU0X1pOI-2" value="" style="endArrow=classic;html=1;rounded=0;exitX=0.5;exitY=1;exitDx=0;exitDy=0;entryX=0.5;entryY=0;entryDx=0;entryDy=0;" edge="1" parent="KAaSTVsqKz9wgYAGUiCQ-1" source="1g0qeCLxsH0dm5yWBrCH-1" target="1g0qeCLxsH0dm5yWBrCH-6">
          <mxGeometry width="50" height="50" relative="1" as="geometry">
            <mxPoint x="360" y="160" as="sourcePoint" />
            <mxPoint x="410" y="110" as="targetPoint" />
          </mxGeometry>
        </mxCell>
        <mxCell id="EE6l4xODaDcvoU0X1pOI-3" value="" style="endArrow=classic;html=1;rounded=0;entryX=0.5;entryY=0;entryDx=0;entryDy=0;exitX=0.5;exitY=1;exitDx=0;exitDy=0;" edge="1" parent="KAaSTVsqKz9wgYAGUiCQ-1" source="1g0qeCLxsH0dm5yWBrCH-1" target="1g0qeCLxsH0dm5yWBrCH-8">
          <mxGeometry width="50" height="50" relative="1" as="geometry">
            <mxPoint x="390" y="190" as="sourcePoint" />
            <mxPoint x="440" y="140" as="targetPoint" />
          </mxGeometry>
        </mxCell>
        <mxCell id="EE6l4xODaDcvoU0X1pOI-4" value="" style="shape=flexArrow;endArrow=classic;html=1;rounded=0;" edge="1" parent="KAaSTVsqKz9wgYAGUiCQ-1">
          <mxGeometry width="50" height="50" relative="1" as="geometry">
            <mxPoint x="380" y="-70" as="sourcePoint" />
            <mxPoint x="380" y="30" as="targetPoint" />
          </mxGeometry>
        </mxCell>
        <mxCell id="EE6l4xODaDcvoU0X1pOI-5" value="docker pull/push" style="edgeLabel;html=1;align=center;verticalAlign=middle;resizable=0;points=[];" vertex="1" connectable="0" parent="EE6l4xODaDcvoU0X1pOI-4">
          <mxGeometry x="-0.26" y="1" relative="1" as="geometry">
            <mxPoint as="offset" />
          </mxGeometry>
        </mxCell>
      </root>
    </mxGraphModel>
  </diagram>
</mxfile>
